<?xml version="1.0" encoding="UTF-8" standalone="no"?>
<!DOCTYPE svg PUBLIC "-//W3C//DTD SVG 1.1//EN" "http://www.w3.org/Graphics/SVG/1.1/DTD/svg11.dtd">
<svg version="1.1" xmlns="http://www.w3.org/2000/svg" xmlns:xlink="http://www.w3.org/1999/xlink" preserveAspectRatio="xMidYMid meet" viewBox="0 0 640 640" width="640" height="640"><defs><path d="M313.53 549.76C313.53 543.58 313.06 540.01 314.55 534.05C315.38 530.73 315.06 523.59 318.65 520.05C321.09 517.65 336.25 512.75 343.23 506.39C349.26 500.91 351.43 495.46 361.67 495.46C369.74 495.46 370.85 504.59 374.99 504.34C389.32 503.49 384.95 509.73 393.43 511.85C401.8 513.95 400.91 507.66 407.77 510.83C412.3 512.92 421.32 514.91 424.16 518C430.07 524.43 436.3 524.33 440.9 528.93C441.35 529.38 457.13 533.56 466.51 533.03C473.45 532.63 484.37 529.76 485.63 526.54C487.16 522.6 487.75 519.97 493.83 513.9C499.02 508.71 504.34 504.21 510.22 501.61C517.64 498.32 522.04 490.7 526.61 486.58C533.59 480.28 541.35 476.46 539.24 471.22C534.46 459.37 527.77 475.54 518.75 467.46C516.77 465.68 501.61 459.47 501 454.14C500.48 449.69 499.45 447.34 503.73 438.78C506.85 432.53 515.11 429.33 508.85 423.07C505.5 419.72 502.97 420.26 498.95 416.24C495.35 412.64 491.06 411.32 492.12 403.95C493.12 396.96 501.85 397.12 509.19 397.12C512.11 397.12 514.94 393.84 515.68 389.95C516.79 384.14 514.96 381.03 509.19 370.82C507.68 368.14 502.39 369.37 502.36 359.21C502.33 348.85 512.25 353.48 511.92 344.19C511.74 338.78 498.33 339.61 500.66 334.97C501 334.29 505.82 317.63 500.31 316.53C498.53 316.17 479.14 316.13 479.14 323.7C479.14 328.1 478.52 335.33 475.04 335.99C466.06 337.7 462.56 334.02 466.17 326.77C469.7 319.66 472.72 319.76 474.7 311.75C479.48 292.44 480.67 300.5 488.7 295.01C488.75 294.98 488.27 282.12 493.48 280.67C500.49 278.73 502.6 276.45 508.85 269.4C510.81 267.2 511.77 257.11 514.31 251.65C516.41 247.15 521.92 250.36 526.61 250.28C536.86 250.11 541.39 246.15 539.93 236.96C538.63 228.83 543.68 227.49 543 217.16C542.4 208.03 544.53 204.7 547.78 197.69C550.17 192.54 551.41 184.19 552.9 178.23C555.61 167.4 555.19 170.68 563.15 166.28C569.26 162.89 572.39 148.18 561.78 148.18C554.13 148.18 555.47 148.69 547.44 146.47C544.71 145.72 540.77 139.09 536.51 142.03C533.35 144.22 526.88 142.34 523.88 139.64C520.21 136.35 507.8 137.57 506.12 135.89C502.65 132.42 502.83 120.57 499.29 119.15C492.15 116.3 482.65 118.69 476.07 115.06C466.47 109.75 458.15 114.41 456.61 111.3C452.98 104 450.92 101.12 443.97 97.64C441.76 96.54 431.68 92.44 431.68 89.79C431.68 83.41 432.56 78.96 430.99 72.71C427.66 59.36 427.22 73.83 424.17 78.52C420.5 84.14 420.09 81.18 413.24 80.57C404.21 79.76 402.65 77.14 402.65 66.57C402.65 60.18 400.39 59.22 392.75 57.69C384.28 55.99 381.32 53.37 376.36 46.76C375.31 45.36 368.16 31.71 368.16 30.37C368.16 19.75 363.17 21.6 357.92 24.22C345.48 30.44 354.71 19.58 346.65 19.1C341.1 18.77 343.33 2.71 337.77 2.71C329.58 2.71 324.11 3.73 315.92 3.73C308.55 3.73 302.73 2.1 301.23 11.25C300.21 17.53 297.79 25.04 298.16 31.39C298.57 38.38 292.97 42.91 297.14 48.47C303.3 56.68 292.06 52.82 289.62 57.69C286.88 63.18 287.75 61.45 281.77 64.52C277.57 66.67 269.92 69.64 262.99 69.98C258.55 70.2 245.85 71.8 242.16 73.05C232.57 76.32 234.15 77.86 234.3 89.45C234.42 98.45 230.78 97.25 222.35 100.03C218.34 101.35 213.09 101.81 208.69 98.32C205.18 95.53 197.73 94.73 191.62 93.2C182.83 91 175.13 89.74 173.86 83.64C173.03 79.64 172.63 69.98 170.11 69.98C164.42 69.98 158.75 69.55 155.08 65.88C150.03 60.83 145.99 60.94 143.81 69.64C141.76 77.86 148.53 75.81 148.25 85.01C147.95 95.15 151.33 100.44 151.33 112.32C151.33 123.1 149.64 122.6 153.37 130.08C157.61 138.56 149.7 140.3 142.45 134.86C132.94 127.73 133.98 132.81 126.06 132.81C121.68 132.81 115.64 123.59 112.4 129.06C109.58 133.8 98.84 136.18 93.62 128.03C89.75 122 92.5 113.92 87.81 111.64C81.9 108.76 79.93 110.73 71.76 109.93C63.73 109.15 65.25 116.49 61.18 116.08C56.8 115.64 54.41 115.74 47.86 115.74C42.32 115.74 36.58 109 32.15 112.32C27.66 115.69 12.83 109.75 10.98 119.49C10.4 122.56 6.99 128.43 11.66 129.4C21.87 131.52 10.58 142.07 20.54 142.37C26.93 142.57 29.69 147.84 16.1 147.84C4.88 147.84 7.68 153.41 16.78 158.08C20.86 160.17 19.24 171.02 23.95 171.06C28.4 171.09 37.29 165.49 46.15 174.13C51.29 179.15 57.7 182.04 64.25 182.67C73.11 183.51 65.92 195.45 71.42 193.94C89.81 188.89 88.58 191.5 86.44 194.96C83.52 199.7 82.74 203.66 91.57 201.45C102.22 198.79 96.22 204.33 95.66 211.35C95.22 217 94.58 220.57 106.25 220.57C122.3 220.57 103.99 224.61 108.98 229.11C113.39 233.09 114.38 244.41 109.67 241.06C102.43 235.92 98.32 239.62 112.06 254.72C118.33 261.62 117.13 264.88 121.62 273.84C123.94 278.5 128.22 285.45 134.25 285.45C141.01 285.45 146.18 282.12 144.15 297.4C143.21 304.51 142.53 305.35 142.11 312.77C141.41 324.76 139.66 318.34 137.67 324.04C135.98 328.88 138.36 331.9 141.76 332.24C146.8 332.73 149.32 339.57 152.69 344.87C154.72 348.06 156.18 352.09 156.45 357.85C156.85 366.57 153.53 365 150.98 355.8C148.31 346.13 146.16 342.97 144.15 341.8C139.07 338.82 136.78 343.29 134.59 352.04C132.69 359.67 131.19 370.76 129.13 379.02C128.29 382.39 121.87 391.83 127.76 391.99C140.4 392.35 138.25 399.89 128.79 399.51C120.58 399.17 126.19 405.79 121.28 417.95C119.02 423.52 116.98 427.23 113.76 433.65C110.25 440.68 109.16 444.57 105.57 451.75C103.37 456.14 104.7 461.01 102.15 466.09C98.94 472.53 95.88 474.17 86.32 474.78C84.97 475.05 89.07 474 93.76 480.35C96.4 483.91 103.9 481.92 107.28 483.49C109.08 484.32 103.18 492.75 104.87 497.98C106.19 502.06 112.08 499.27 117.67 503.05C120.2 504.76 120.32 509.33 129.01 509.33C133.14 509.33 139.88 511.73 139.88 517.29C139.88 522.77 144.24 521.4 149.54 521.4C155.87 521.4 159.89 519.82 161.37 525.74C162.93 531.96 163.91 531.94 170.06 532.02C175.42 532.09 180.03 532.61 185.28 532.26C192.59 531.78 189.16 535.64 197.59 534.92C202.37 534.51 202.42 533.3 202.42 527.43C202.42 523.81 212.94 528.96 214.73 530.33C219.74 534.15 223.14 537.33 225.6 537.09C229.44 536.73 232.19 542.47 234.53 542.65C238.53 542.94 237.43 550.01 237.43 553.27C237.43 560.67 240.23 558.82 247.09 558.82C254.36 558.82 257.18 557.44 259.64 562.93C260.72 565.32 260.06 566.97 265.68 567.03C272.4 567.11 268.91 563.34 276.31 563.65C285.9 564.06 283.07 571.62 292 570.9C299.97 570.25 294.48 565.1 306 564.86C312 564.74 309.5 562.22 313.43 562.84C314.44 557.03 313.53 556.55 313.53 549.76Z" id="aedoVisDf"></path></defs><g><g><g><use xlink:href="#aedoVisDf" opacity="1" fill="#0033cc" fill-opacity="1"></use><g><use xlink:href="#aedoVisDf" opacity="1" fill-opacity="0" stroke="#000000" stroke-width="1" stroke-opacity="0"></use></g></g></g></g></svg>